<mxfile host="app.diagrams.net" modified="2024-04-14T08:57:57.171Z" agent="Mozilla/5.0 (Windows NT 10.0; Win64; x64) AppleWebKit/537.36 (KHTML, like Gecko) Chrome/123.0.0.0 Safari/537.36" etag="bzIIvMpe34ay-pl3ndJF" version="24.2.5" type="device">
  <diagram name="페이지-1" id="7P7csBAX9KKJiG9cR0zP">
    <mxGraphModel dx="989" dy="514" grid="1" gridSize="10" guides="1" tooltips="1" connect="1" arrows="1" fold="1" page="1" pageScale="1" pageWidth="827" pageHeight="1169" math="0" shadow="0">
      <root>
        <mxCell id="0" />
        <mxCell id="1" parent="0" />
        <mxCell id="MEfPqNs9XL0nHl1QLN6S-29" style="rounded=0;orthogonalLoop=1;jettySize=auto;html=1;exitX=0.5;exitY=0.5;exitDx=0;exitDy=0;exitPerimeter=0;entryX=0;entryY=0.75;entryDx=0;entryDy=0;endArrow=none;endFill=0;" edge="1" parent="1" source="MEfPqNs9XL0nHl1QLN6S-1" target="MEfPqNs9XL0nHl1QLN6S-22">
          <mxGeometry relative="1" as="geometry" />
        </mxCell>
        <mxCell id="MEfPqNs9XL0nHl1QLN6S-1" value="Actor" style="shape=umlActor;verticalLabelPosition=bottom;verticalAlign=top;html=1;outlineConnect=0;" vertex="1" parent="1">
          <mxGeometry x="120" y="540" width="30" height="60" as="geometry" />
        </mxCell>
        <mxCell id="MEfPqNs9XL0nHl1QLN6S-19" value="&lt;h1 style=&quot;margin-top: 0px;&quot;&gt;System&lt;/h1&gt;" style="text;html=1;whiteSpace=wrap;overflow=hidden;rounded=0;" vertex="1" parent="1">
          <mxGeometry x="320" y="380" width="90" height="40" as="geometry" />
        </mxCell>
        <mxCell id="MEfPqNs9XL0nHl1QLN6S-24" value="" style="group" vertex="1" connectable="0" parent="1">
          <mxGeometry x="220" y="440" width="75" height="50" as="geometry" />
        </mxCell>
        <mxCell id="MEfPqNs9XL0nHl1QLN6S-21" value="" style="ellipse;whiteSpace=wrap;html=1;" vertex="1" parent="MEfPqNs9XL0nHl1QLN6S-24">
          <mxGeometry width="75" height="50" as="geometry" />
        </mxCell>
        <mxCell id="MEfPqNs9XL0nHl1QLN6S-22" value="회원가입" style="text;html=1;align=center;verticalAlign=middle;whiteSpace=wrap;rounded=0;" vertex="1" parent="MEfPqNs9XL0nHl1QLN6S-24">
          <mxGeometry x="2.5" y="10" width="70" height="30" as="geometry" />
        </mxCell>
        <mxCell id="MEfPqNs9XL0nHl1QLN6S-25" value="" style="group" vertex="1" connectable="0" parent="1">
          <mxGeometry x="220" y="510" width="75" height="50" as="geometry" />
        </mxCell>
        <mxCell id="MEfPqNs9XL0nHl1QLN6S-26" value="" style="ellipse;whiteSpace=wrap;html=1;" vertex="1" parent="MEfPqNs9XL0nHl1QLN6S-25">
          <mxGeometry width="75" height="50" as="geometry" />
        </mxCell>
        <mxCell id="MEfPqNs9XL0nHl1QLN6S-27" value="로그인" style="text;html=1;align=center;verticalAlign=middle;whiteSpace=wrap;rounded=0;" vertex="1" parent="MEfPqNs9XL0nHl1QLN6S-25">
          <mxGeometry x="2.5" y="10" width="70" height="30" as="geometry" />
        </mxCell>
        <mxCell id="MEfPqNs9XL0nHl1QLN6S-30" style="rounded=0;orthogonalLoop=1;jettySize=auto;html=1;endArrow=none;endFill=0;entryX=0;entryY=0.5;entryDx=0;entryDy=0;exitX=0.5;exitY=0.5;exitDx=0;exitDy=0;exitPerimeter=0;" edge="1" parent="1" source="MEfPqNs9XL0nHl1QLN6S-1" target="MEfPqNs9XL0nHl1QLN6S-26">
          <mxGeometry relative="1" as="geometry">
            <mxPoint x="120" y="550" as="sourcePoint" />
            <mxPoint x="233" y="483" as="targetPoint" />
          </mxGeometry>
        </mxCell>
        <mxCell id="MEfPqNs9XL0nHl1QLN6S-36" style="rounded=0;orthogonalLoop=1;jettySize=auto;html=1;exitX=1;exitY=0.5;exitDx=0;exitDy=0;entryX=0;entryY=0.75;entryDx=0;entryDy=0;dashed=1;" edge="1" parent="1" source="MEfPqNs9XL0nHl1QLN6S-27" target="MEfPqNs9XL0nHl1QLN6S-35">
          <mxGeometry relative="1" as="geometry" />
        </mxCell>
        <mxCell id="MEfPqNs9XL0nHl1QLN6S-37" value="" style="group" vertex="1" connectable="0" parent="1">
          <mxGeometry x="510" y="540" width="60" height="60" as="geometry" />
        </mxCell>
        <mxCell id="MEfPqNs9XL0nHl1QLN6S-11" value="" style="strokeWidth=2;html=1;shape=mxgraph.flowchart.database;whiteSpace=wrap;" vertex="1" parent="MEfPqNs9XL0nHl1QLN6S-37">
          <mxGeometry width="60" height="60" as="geometry" />
        </mxCell>
        <mxCell id="MEfPqNs9XL0nHl1QLN6S-20" value="&lt;h1 style=&quot;margin-top: 0px;&quot;&gt;DB&lt;/h1&gt;" style="text;html=1;whiteSpace=wrap;overflow=hidden;rounded=0;" vertex="1" parent="MEfPqNs9XL0nHl1QLN6S-37">
          <mxGeometry x="10" y="20" width="40" height="40" as="geometry" />
        </mxCell>
        <mxCell id="MEfPqNs9XL0nHl1QLN6S-39" style="rounded=0;orthogonalLoop=1;jettySize=auto;html=1;exitX=1;exitY=0.5;exitDx=0;exitDy=0;entryX=0;entryY=0.5;entryDx=0;entryDy=0;entryPerimeter=0;endArrow=none;endFill=0;" edge="1" parent="1" source="MEfPqNs9XL0nHl1QLN6S-35" target="MEfPqNs9XL0nHl1QLN6S-11">
          <mxGeometry relative="1" as="geometry" />
        </mxCell>
        <mxCell id="MEfPqNs9XL0nHl1QLN6S-44" value="" style="swimlane;startSize=0;" vertex="1" parent="1">
          <mxGeometry x="210" y="430" width="280" height="340" as="geometry" />
        </mxCell>
        <mxCell id="MEfPqNs9XL0nHl1QLN6S-33" value="" style="group" vertex="1" connectable="0" parent="MEfPqNs9XL0nHl1QLN6S-44">
          <mxGeometry x="160" y="70" width="75" height="50" as="geometry" />
        </mxCell>
        <mxCell id="MEfPqNs9XL0nHl1QLN6S-34" value="" style="ellipse;whiteSpace=wrap;html=1;" vertex="1" parent="MEfPqNs9XL0nHl1QLN6S-33">
          <mxGeometry width="75" height="50" as="geometry" />
        </mxCell>
        <mxCell id="MEfPqNs9XL0nHl1QLN6S-35" value="인증" style="text;html=1;align=center;verticalAlign=middle;whiteSpace=wrap;rounded=0;" vertex="1" parent="MEfPqNs9XL0nHl1QLN6S-33">
          <mxGeometry x="2.5" y="10" width="70" height="30" as="geometry" />
        </mxCell>
        <mxCell id="MEfPqNs9XL0nHl1QLN6S-51" value="" style="group" vertex="1" connectable="0" parent="MEfPqNs9XL0nHl1QLN6S-44">
          <mxGeometry x="10" y="200" width="75" height="50" as="geometry" />
        </mxCell>
        <mxCell id="MEfPqNs9XL0nHl1QLN6S-52" value="" style="ellipse;whiteSpace=wrap;html=1;" vertex="1" parent="MEfPqNs9XL0nHl1QLN6S-51">
          <mxGeometry width="75" height="50" as="geometry" />
        </mxCell>
        <mxCell id="MEfPqNs9XL0nHl1QLN6S-53" value="게시글 작성" style="text;html=1;align=center;verticalAlign=middle;whiteSpace=wrap;rounded=0;" vertex="1" parent="MEfPqNs9XL0nHl1QLN6S-51">
          <mxGeometry x="2.5" y="10" width="70" height="30" as="geometry" />
        </mxCell>
        <mxCell id="MEfPqNs9XL0nHl1QLN6S-55" value="" style="group" vertex="1" connectable="0" parent="MEfPqNs9XL0nHl1QLN6S-44">
          <mxGeometry x="10" y="280" width="75" height="50" as="geometry" />
        </mxCell>
        <mxCell id="MEfPqNs9XL0nHl1QLN6S-56" value="" style="ellipse;whiteSpace=wrap;html=1;" vertex="1" parent="MEfPqNs9XL0nHl1QLN6S-55">
          <mxGeometry width="75" height="50" as="geometry" />
        </mxCell>
        <mxCell id="MEfPqNs9XL0nHl1QLN6S-57" value="게시글 조회" style="text;html=1;align=center;verticalAlign=middle;whiteSpace=wrap;rounded=0;" vertex="1" parent="MEfPqNs9XL0nHl1QLN6S-55">
          <mxGeometry x="2.5" y="10" width="70" height="30" as="geometry" />
        </mxCell>
        <mxCell id="MEfPqNs9XL0nHl1QLN6S-61" value="include" style="text;html=1;align=center;verticalAlign=middle;whiteSpace=wrap;rounded=0;" vertex="1" parent="MEfPqNs9XL0nHl1QLN6S-44">
          <mxGeometry x="40" y="150" width="60" height="30" as="geometry" />
        </mxCell>
        <mxCell id="MEfPqNs9XL0nHl1QLN6S-62" value="" style="group" vertex="1" connectable="0" parent="MEfPqNs9XL0nHl1QLN6S-44">
          <mxGeometry x="129" y="220" width="75" height="50" as="geometry" />
        </mxCell>
        <mxCell id="MEfPqNs9XL0nHl1QLN6S-63" value="" style="ellipse;whiteSpace=wrap;html=1;" vertex="1" parent="MEfPqNs9XL0nHl1QLN6S-62">
          <mxGeometry width="75" height="50" as="geometry" />
        </mxCell>
        <mxCell id="MEfPqNs9XL0nHl1QLN6S-64" value="전체 글 조회" style="text;html=1;align=center;verticalAlign=middle;whiteSpace=wrap;rounded=0;" vertex="1" parent="MEfPqNs9XL0nHl1QLN6S-62">
          <mxGeometry x="2.5" y="10" width="70" height="30" as="geometry" />
        </mxCell>
        <mxCell id="MEfPqNs9XL0nHl1QLN6S-65" value="" style="group" vertex="1" connectable="0" parent="MEfPqNs9XL0nHl1QLN6S-44">
          <mxGeometry x="129" y="280" width="75" height="50" as="geometry" />
        </mxCell>
        <mxCell id="MEfPqNs9XL0nHl1QLN6S-66" value="" style="ellipse;whiteSpace=wrap;html=1;" vertex="1" parent="MEfPqNs9XL0nHl1QLN6S-65">
          <mxGeometry width="75" height="50" as="geometry" />
        </mxCell>
        <mxCell id="MEfPqNs9XL0nHl1QLN6S-67" value="카테고리 별 조회" style="text;html=1;align=center;verticalAlign=middle;whiteSpace=wrap;rounded=0;" vertex="1" parent="MEfPqNs9XL0nHl1QLN6S-65">
          <mxGeometry x="2.5" y="10" width="70" height="30" as="geometry" />
        </mxCell>
        <mxCell id="MEfPqNs9XL0nHl1QLN6S-68" style="edgeStyle=orthogonalEdgeStyle;rounded=0;orthogonalLoop=1;jettySize=auto;html=1;exitX=1;exitY=0.5;exitDx=0;exitDy=0;entryX=0;entryY=0.5;entryDx=0;entryDy=0;dashed=1;" edge="1" parent="MEfPqNs9XL0nHl1QLN6S-44" source="MEfPqNs9XL0nHl1QLN6S-56" target="MEfPqNs9XL0nHl1QLN6S-63">
          <mxGeometry relative="1" as="geometry" />
        </mxCell>
        <mxCell id="MEfPqNs9XL0nHl1QLN6S-69" style="edgeStyle=orthogonalEdgeStyle;rounded=0;orthogonalLoop=1;jettySize=auto;html=1;exitX=1;exitY=0.75;exitDx=0;exitDy=0;entryX=0.034;entryY=0.64;entryDx=0;entryDy=0;entryPerimeter=0;dashed=1;" edge="1" parent="MEfPqNs9XL0nHl1QLN6S-44" source="MEfPqNs9XL0nHl1QLN6S-57" target="MEfPqNs9XL0nHl1QLN6S-66">
          <mxGeometry relative="1" as="geometry">
            <Array as="points">
              <mxPoint x="100" y="313" />
            </Array>
          </mxGeometry>
        </mxCell>
        <mxCell id="MEfPqNs9XL0nHl1QLN6S-70" value="include" style="text;html=1;align=center;verticalAlign=middle;whiteSpace=wrap;rounded=0;" vertex="1" parent="MEfPqNs9XL0nHl1QLN6S-44">
          <mxGeometry x="60" y="260" width="60" height="30" as="geometry" />
        </mxCell>
        <mxCell id="MEfPqNs9XL0nHl1QLN6S-71" value="include" style="text;html=1;align=center;verticalAlign=middle;whiteSpace=wrap;rounded=0;" vertex="1" parent="MEfPqNs9XL0nHl1QLN6S-44">
          <mxGeometry x="80" y="310" width="60" height="30" as="geometry" />
        </mxCell>
        <mxCell id="MEfPqNs9XL0nHl1QLN6S-38" value="include" style="text;html=1;align=center;verticalAlign=middle;whiteSpace=wrap;rounded=0;" vertex="1" parent="MEfPqNs9XL0nHl1QLN6S-44">
          <mxGeometry x="85" y="80" width="60" height="30" as="geometry" />
        </mxCell>
        <mxCell id="MEfPqNs9XL0nHl1QLN6S-54" style="rounded=0;orthogonalLoop=1;jettySize=auto;html=1;endArrow=none;endFill=0;entryX=0.074;entryY=-0.029;entryDx=0;entryDy=0;exitX=0.5;exitY=0.5;exitDx=0;exitDy=0;exitPerimeter=0;entryPerimeter=0;" edge="1" parent="1" source="MEfPqNs9XL0nHl1QLN6S-1" target="MEfPqNs9XL0nHl1QLN6S-53">
          <mxGeometry relative="1" as="geometry">
            <mxPoint x="145" y="530" as="sourcePoint" />
            <mxPoint x="230" y="545" as="targetPoint" />
          </mxGeometry>
        </mxCell>
        <mxCell id="MEfPqNs9XL0nHl1QLN6S-59" style="rounded=0;orthogonalLoop=1;jettySize=auto;html=1;endArrow=none;endFill=0;entryX=0;entryY=0.5;entryDx=0;entryDy=0;exitX=0.5;exitY=0.5;exitDx=0;exitDy=0;exitPerimeter=0;" edge="1" parent="1" source="MEfPqNs9XL0nHl1QLN6S-1" target="MEfPqNs9XL0nHl1QLN6S-56">
          <mxGeometry relative="1" as="geometry">
            <mxPoint x="100" y="560" as="sourcePoint" />
            <mxPoint x="188" y="655" as="targetPoint" />
          </mxGeometry>
        </mxCell>
        <mxCell id="MEfPqNs9XL0nHl1QLN6S-60" style="edgeStyle=orthogonalEdgeStyle;rounded=0;orthogonalLoop=1;jettySize=auto;html=1;entryX=0.5;entryY=1;entryDx=0;entryDy=0;endArrow=classic;endFill=1;dashed=1;exitX=0.5;exitY=0;exitDx=0;exitDy=0;" edge="1" parent="1" source="MEfPqNs9XL0nHl1QLN6S-52" target="MEfPqNs9XL0nHl1QLN6S-26">
          <mxGeometry relative="1" as="geometry">
            <mxPoint x="258" y="590" as="sourcePoint" />
          </mxGeometry>
        </mxCell>
        <mxCell id="MEfPqNs9XL0nHl1QLN6S-72" style="rounded=0;orthogonalLoop=1;jettySize=auto;html=1;exitX=1;exitY=0.5;exitDx=0;exitDy=0;endArrow=none;endFill=0;entryX=-0.012;entryY=0.507;entryDx=0;entryDy=0;entryPerimeter=0;" edge="1" parent="1" source="MEfPqNs9XL0nHl1QLN6S-63" target="MEfPqNs9XL0nHl1QLN6S-11">
          <mxGeometry relative="1" as="geometry">
            <mxPoint x="510" y="500" as="targetPoint" />
          </mxGeometry>
        </mxCell>
        <mxCell id="MEfPqNs9XL0nHl1QLN6S-73" style="rounded=0;orthogonalLoop=1;jettySize=auto;html=1;exitX=1;exitY=0.5;exitDx=0;exitDy=0;endArrow=none;endFill=0;entryX=-0.005;entryY=0.52;entryDx=0;entryDy=0;entryPerimeter=0;" edge="1" parent="1" source="MEfPqNs9XL0nHl1QLN6S-67" target="MEfPqNs9XL0nHl1QLN6S-11">
          <mxGeometry relative="1" as="geometry">
            <mxPoint x="510" y="505" as="targetPoint" />
          </mxGeometry>
        </mxCell>
        <mxCell id="MEfPqNs9XL0nHl1QLN6S-74" style="rounded=0;orthogonalLoop=1;jettySize=auto;html=1;entryX=0;entryY=0.5;entryDx=0;entryDy=0;entryPerimeter=0;endArrow=none;endFill=0;" edge="1" parent="1" source="MEfPqNs9XL0nHl1QLN6S-53" target="MEfPqNs9XL0nHl1QLN6S-11">
          <mxGeometry relative="1" as="geometry" />
        </mxCell>
      </root>
    </mxGraphModel>
  </diagram>
</mxfile>
